/* XPM */
static char *result[] = {
/* columns rows colors chars-per-pixel */
"64 64 2 1 ",
"  c #A7A9B3",
". c #D2CFDE",
/* pixels */
"..............                                  ................",
"..............                                  ................",
"..........                                            ..........",
"..........                                            ..........",
"......                                                    ......",
"......                                                    ......",
"....                                                        ....",
"....                                                        ....",
"....                                                        ....",
"....                                                        ....",
"..                                                            ..",
"..                                                            ..",
"..                                                            ..",
"..                                                            ..",
"..                                                              ",
"..                                                              ",
"                              ..                                ",
"                              ..                                ",
"                              ....                              ",
"                              ....                              ",
"                              ....                              ",
"                              ....                              ",
"                            ........                            ",
"                            ........                            ",
"                            ........                            ",
"                            ........                            ",
"                          ............                          ",
"                          ............                          ",
"                      ....................                      ",
"                      ....................                      ",
"                  ..............................                ",
"                  ..............................                ",
"                ..............................                  ",
"                ..............................                  ",
"                      ....................                      ",
"                      ....................                      ",
"                          ............                          ",
"                          ............                          ",
"                            ........                            ",
"                            ........                            ",
"                            ........                            ",
"                            ........                            ",
"                              ....                              ",
"                              ....                              ",
"                              ....                              ",
"                              ....                              ",
"                                ..                              ",
"                                ..                              ",
"                                                              ..",
"                                                              ..",
"..                                                            ..",
"..                                                            ..",
"..                                                            ..",
"..                                                            ..",
"....                                                        ....",
"....                                                        ....",
"....                                                        ....",
"....                                                        ....",
"......                                                    ......",
"......                                                    ......",
"..........                                            ..........",
"..........                                            ..........",
"................                                  ..............",
"................                                  .............."
};
