/* XPM */
static char *result[] = {
/* columns rows colors chars-per-pixel */
"64 64 2 1 ",
"  c #B3AFA7",
". c #DED7CF",
/* pixels */
"........................                ........................",
"........................                ........................",
"....................                        ....................",
"....................                        ....................",
"..............                                    ..............",
"..............                                    ..............",
"........                                                ........",
"........                                                ........",
"......                        ....                        ......",
"......                        ....                        ......",
"......                        ....                        ......",
"......                        ....                        ......",
"......                      ........                      ......",
"......                      ........                      ......",
"....                        ........                        ....",
"....                        ........                        ....",
"....                        ........                        ....",
"....                        ........                        ....",
"....                      ............                      ....",
"....                      ............                      ....",
"..                        ............                        ..",
"..                        ............                        ..",
"..                        ............                        ..",
"..                        ............                        ..",
"                        ................                        ",
"                        ................                        ",
"                  ............................                  ",
"                  ............................                  ",
"            ........................................            ",
"            ........................................            ",
"        ................................................        ",
"        ................................................        ",
"        ................................................        ",
"        ................................................        ",
"            ........................................            ",
"            ........................................            ",
"                  ............................                  ",
"                  ............................                  ",
"                        ................                        ",
"                        ................                        ",
"..                        ............                        ..",
"..                        ............                        ..",
"..                        ............                        ..",
"..                        ............                        ..",
"....                      ............                      ....",
"....                      ............                      ....",
"....                        ........                        ....",
"....                        ........                        ....",
"....                        ........                        ....",
"....                        ........                        ....",
"......                      ........                      ......",
"......                      ........                      ......",
"......                        ....                        ......",
"......                        ....                        ......",
"......                        ....                        ......",
"......                        ....                        ......",
"........                                                ........",
"........                                                ........",
"..............                                    ..............",
"..............                                    ..............",
"....................                        ....................",
"....................                        ....................",
"........................                ........................",
"........................                ........................"
};
