/* XPM */
static char *result[] = {
/* columns rows colors chars-per-pixel */
"64 64 2 1 ",
"  c #A579E2",
". c #CD9FF9",
/* pixels */
"      ..........                                    ..........  ",
"      ..........                                    ..........  ",
"..        ........                                ........    ..",
"..        ........                                ........    ..",
"..            ....                                ....    ......",
"..            ....                                ....    ......",
"..            ..                                      ..........",
"..            ..                                      ..........",
"..        ....                                      ............",
"..        ....                                      ............",
"..      ..                                            ..........",
"..      ..                                            ..........",
"..  ....                                                  ......",
"..  ....                                                  ......",
"....                                                          ..",
"....                                                          ..",
"                                                                ",
"                                                                ",
"                        ..................                      ",
"                        ..................                      ",
"                      ..  ..............  ..                    ",
"                      ..  ..............  ..                    ",
"                      ....  ..........  ....                    ",
"                      ....  ..........  ....                    ",
"                      ......  ......  ......                    ",
"                      ......  ......  ......                    ",
"                    ..........  ..  ..........                  ",
"                    ..........  ..  ..........                  ",
"                    ............  ............                  ",
"                    ............  ............                  ",
"                    ..........      ..........                  ",
"                    ..........      ..........                  ",
"                  ........    ..        ........                ",
"                  ........    ..        ........                ",
"                  ....    ......            ....                ",
"                  ....    ......            ....                ",
"                      ..........            ..                  ",
"                      ..........            ..                  ",
"                    ............        ....                    ",
"                    ............        ....                    ",
"                      ..........      ..                        ",
"                      ..........      ..                        ",
"                          ......  ....                          ",
"                          ......  ....                          ",
"                              ....                              ",
"                              ....                              ",
"                                                                ",
"                                                                ",
"                                                                ",
"                                                                ",
"                                                                ",
"                                                                ",
"............                                            ........",
"............                                            ........",
"..........  ..                                        ..  ......",
"..........  ..                                        ..  ......",
"........  ....                                        ....  ....",
"........  ....                                        ....  ....",
"......  ......                                        ......  ..",
"......  ......                                        ......  ..",
"  ..  ..........                                    ..........  ",
"  ..  ..........                                    ..........  ",
"..  ............                                    ............",
"..  ............                                    ............"
};
